<svg xmlns="http://www.w3.org/2000/svg" viewBox="0 0 64 64">
  <defs>
    <linearGradient id="bg" x1="0" y1="0" x2="1" y2="1">
      <stop offset="0%" stop-color="#eadcff"/>
      <stop offset="100%" stop-color="#f7c5dc"/>
    </linearGradient>
    <linearGradient id="glass" x1="0" y1="0" x2="1" y2="1">
      <stop offset="0%" stop-color="#ffffff" stop-opacity=".95"/>
      <stop offset="100%" stop-color="#b99add" stop-opacity=".9"/>
    </linearGradient>
  </defs>
  <rect width="64" height="64" rx="18" fill="url(#bg)"/>
  <circle cx="49" cy="15" r="2" fill="#fff" opacity=".95"/>
  <path d="M47 20l1.2 3 3 1.2-3 1.2-1.2 3-1.2-3-3-1.2 3-1.2z" fill="#fff"/>
  <rect x="25" y="11" width="14" height="9" rx="2.5" fill="#332d37"/>
  <rect x="28" y="18" width="8" height="8" rx="1.7" fill="#eee7f4"/>
  <rect x="19" y="23" width="26" height="29" rx="7" fill="url(#glass)" stroke="#fff" stroke-opacity=".85"/>
  <rect x="23" y="31" width="18" height="14" rx="3" fill="#fff" fill-opacity=".82"/>
  <text x="32" y="36.2" text-anchor="middle" font-family="Georgia, serif" font-size="4.2" font-weight="700" fill="#8061a8">carfume</text>
  <text x="32" y="41.2" text-anchor="middle" font-family="Arial, sans-serif" font-size="2.8" letter-spacing=".8" fill="#8d848f">SCENT</text>
  <path d="M22 26c3-2 4-2 5-1" fill="none" stroke="#fff" stroke-width="2" stroke-linecap="round" opacity=".7"/>
</svg>
